<?xml version="1.0" encoding="UTF-8"?>
<svg width="592px" height="458px" viewBox="0 0 592 458" version="1.1" xmlns="http://www.w3.org/2000/svg" xmlns:xlink="http://www.w3.org/1999/xlink">
    <!-- Generator: Sketch 44.1 (41455) - http://www.bohemiancoding.com/sketch -->
    <title>Rock! Copy</title>
    <desc>Created with Sketch.</desc>
    <defs>
        <path d="M279.190327,458 C350.455693,458 464.575702,439.187438 516.010973,407.770901 C584.027549,366.226544 592,315.718538 592,244.450519 C592,182.986002 553.538473,133.812424 511.902899,91.5044183 C470.267326,49.1964124 404.399982,0 320.171221,0 C154.666512,0 0.0079897537,111.649356 0.0079897537,236.811441 C0.0079897537,277.571905 -1.13060028,326.073549 23.7762826,359.121493 C75.3503093,427.553 167.58412,458 279.190327,458 Z" id="path-1"></path>
        <path d="M138.042458,27.592446 C214.281203,27.592446 268.623162,21.0742721 268.623162,11.3235145 C268.623162,1.57275696 230.651651,0 184.503391,0 C156.696845,0 135.507444,4.06435611 116.900821,4.06435611 C105.708189,4.06435611 77.3730817,4.06435611 52.9277951,4.06435611 C29.847018,4.06435611 5.10382306e-15,6.55595527 0,15.1344502 C0,23.9854994 33.9649908,27.5155808 82.5967769,27.6273109 C99.5661866,27.6662976 118.321378,27.592446 138.042458,27.592446 Z" id="path-3"></path>
    </defs>
    <g id="Page-1" stroke="none" stroke-width="1" fill="none" fill-rule="evenodd">
        <g id="Rock!">
            <g id="Group-3-Copy">
                <g id="Oval-Copy-2">
                    <mask id="mask-2" fill="white">
                        <use xlink:href="#path-1"></use>
                    </mask>
                    <use id="Mask" fill="#C2B6B2" xlink:href="#path-1"></use>
                    <path d="M271.013532,438.371429 C342.278897,438.371429 458.034265,419.558866 509.469537,388.14233 C577.486113,346.597973 580.552486,300.997109 580.552486,229.729091 C580.552486,168.264574 545.361677,119.090996 503.726104,76.7829897 C462.09053,34.4749838 396.223187,-14.7214286 311.994425,-14.7214286 C146.489716,-14.7214286 -8.16880583,96.9279271 -8.16880583,222.090012 C-8.16880583,262.850476 -9.30739586,304.809264 15.599487,337.857207 C67.1735137,406.288715 159.407324,438.371429 271.013532,438.371429 Z" id="Oval-Copy" fill="#D1CBC9" mask="url(#mask-2)"></path>
                </g>
                <path d="M140.14994,249.750128 C172.431211,249.750128 211.036608,218.552047 211.036608,186.21435 C211.036608,160.138192 204.542052,148.039565 194.032679,137.452952 C183.446215,126.78868 166.298565,122.678571 150.098946,122.678571 C117.817676,122.678571 86.6740331,161.35145 86.6740331,193.689147 C86.6740331,226.026844 107.86867,249.750128 140.14994,249.750128 Z" id="Oval-2-Copy-8" fill="#FDFCFA"></path>
                <path d="M428.893463,251.309787 C446.704212,251.309787 465.141601,243.329637 475.862438,230.743914 C484.572689,220.518518 489.831125,209.744622 489.831125,195.248806 C489.831125,162.911109 463.661985,129.221429 431.380714,129.221429 C414.907131,129.221429 395.050767,133.556719 384.426129,144.540339 C374.230962,155.079978 367.955801,176.921889 367.955801,192.757207 C367.955801,225.094904 396.612193,251.309787 428.893463,251.309787 Z" id="Oval-2-Copy-9" fill="#FDFCFA"></path>
                <path d="M127.116673,219.144479 C143.600726,219.144479 156.963691,208.249754 156.963691,191.736888 C156.963691,181.813259 154.624814,170.527205 147.195476,165.088727 C142.262434,161.477606 133.59633,161.468989 127.116673,162.597128 C117.167667,164.329297 99.7569061,175.224021 99.7569061,191.736888 C99.7569061,208.249754 110.63262,219.144479 127.116673,219.144479 Z" id="Oval-2-Copy-10" fill="#746DCD"></path>
                <path d="M449.98667,221.734094 C465.783887,221.734094 476.102811,211.767697 476.102811,193.080704 C476.102811,174.39371 463.296636,161.935714 447.499419,161.935714 C439.402452,161.935714 429.604023,162.81436 421.913048,170.722473 C414.222073,178.630586 414.73798,188.040585 416.408775,195.572303 C418.896026,206.784499 434.189453,221.734094 449.98667,221.734094 Z" id="Oval-2-Copy-11" fill="#746DCD"></path>
                <path d="M300.421991,355.975326 C395.89213,355.975326 475.773222,346.008929 473.28597,318.601339 C471.610199,300.135636 455.87521,281.227351 397.309437,273.519503 C361.944758,268.865154 321.244181,273.463008 300.421991,276.244153 C281.767604,278.735752 204.662808,278.735752 170.046312,286.165988 C145.864056,291.356573 127.558011,305.283815 127.558011,318.601339 C127.558011,355.568089 204.951851,355.975326 300.421991,355.975326 Z" id="Oval-4-Copy-2" fill="#FFEC6B"></path>
                <g id="Group-Copy-2" transform="translate(158.629834, 302.607143)">
                    <g id="Oval-5-Copy">
                        <mask id="mask-4" fill="white">
                            <use xlink:href="#path-3"></use>
                        </mask>
                        <use id="Mask" fill="#3D3B31" xlink:href="#path-3"></use>
                        <path d="M202.637592,89.688671 C232.167832,89.688671 246.164493,63.2499156 246.164493,39.8566879 C246.164493,28.6076023 245.338255,8.72504633 242.851003,-1.24135029 C230.414746,-1.24135029 210.507806,-1.24135029 195.175838,-1.24135029 C165.641909,-1.24135029 165.333087,-0.400636999 140.460572,-1.24135029 C140.460572,12.0627808 141.908125,42.1642208 156.102009,62.4418161 C166.865843,77.8191915 179.008703,89.688671 202.637592,89.688671 Z" fill="#EA6B6B" mask="url(#mask-4)"></path>
                    </g>
                    <path d="M202.637592,89.688671 C232.167832,89.688671 246.164493,63.2499156 246.164493,39.8566879 C246.164493,28.6076023 244.925135,12.4490972 242.437884,2.48270059 C230.001626,2.48270059 210.507806,2.48270059 195.175838,2.48270059 C165.641909,2.48270059 166.572445,3.32341388 141.69993,2.48270059 C141.69993,15.7868317 141.908125,42.1642208 156.102009,62.4418161 C166.865843,77.8191915 179.008703,89.688671 202.637592,89.688671 Z" id="Oval-5-Copy" fill="#EA6B6B"></path>
                </g>
            </g>
        </g>
    </g>
</svg>